<svg width="24" height="24" viewBox="0 0 24 24" fill="none" xmlns="http://www.w3.org/2000/svg">
<path d="M0 12C0 18.6274 5.37258 24 12 24C18.6274 24 24 18.6274 24 12C24 5.37258 18.6274 0 12 0C5.37258 0 0 5.37258 0 12Z" fill="#047857"/>
<path d="M11.9999 6.90039C13.6499 6.90039 13.8749 6.90039 14.5499 6.90039C15.1499 6.90039 15.4499 7.05039 15.6749 7.12539C15.9749 7.27539 16.1999 7.35039 16.4249 7.57539C16.6499 7.80039 16.7999 8.02539 16.8749 8.32539C16.9499 8.55039 17.0249 8.85039 17.0999 9.45039C17.0999 10.1254 17.0999 10.2754 17.0999 12.0004C17.0999 13.7254 17.0999 13.8754 17.0999 14.5504C17.0999 15.1504 16.9499 15.4504 16.8749 15.6754C16.7249 15.9754 16.6499 16.2004 16.4249 16.4254C16.1999 16.6504 15.9749 16.8004 15.6749 16.8754C15.4499 16.9504 15.1499 17.0254 14.5499 17.1004C13.8749 17.1004 13.7249 17.1004 11.9999 17.1004C10.2749 17.1004 10.1249 17.1004 9.4499 17.1004C8.8499 17.1004 8.5499 16.9504 8.3249 16.8754C8.0249 16.7254 7.7999 16.6504 7.5749 16.4254C7.3499 16.2004 7.1999 15.9754 7.1249 15.6754C7.0499 15.4504 6.9749 15.1504 6.8999 14.5504C6.8999 13.8754 6.8999 13.7254 6.8999 12.0004C6.8999 10.2754 6.8999 10.1254 6.8999 9.45039C6.8999 8.85039 7.0499 8.55039 7.1249 8.32539C7.2749 8.02539 7.3499 7.80039 7.5749 7.57539C7.7999 7.35039 8.0249 7.20039 8.3249 7.12539C8.5499 7.05039 8.8499 6.97539 9.4499 6.90039C10.1249 6.90039 10.3499 6.90039 11.9999 6.90039ZM11.9999 5.77539C10.2749 5.77539 10.1249 5.77539 9.4499 5.77539C8.7749 5.77539 8.3249 5.92539 7.9499 6.07539C7.5749 6.22539 7.1999 6.45039 6.8249 6.82539C6.4499 7.20039 6.2999 7.50039 6.0749 7.95039C5.9249 8.32539 5.8499 8.77539 5.7749 9.45039C5.7749 10.1254 5.7749 10.3504 5.7749 12.0004C5.7749 13.7254 5.7749 13.8754 5.7749 14.5504C5.7749 15.2254 5.9249 15.6754 6.0749 16.0504C6.2249 16.4254 6.4499 16.8004 6.8249 17.1754C7.1999 17.5504 7.4999 17.7004 7.9499 17.9254C8.3249 18.0754 8.7749 18.1504 9.4499 18.2254C10.1249 18.2254 10.3499 18.2254 11.9999 18.2254C13.6499 18.2254 13.8749 18.2254 14.5499 18.2254C15.2249 18.2254 15.6749 18.0754 16.0499 17.9254C16.4249 17.7754 16.7999 17.5504 17.1749 17.1754C17.5499 16.8004 17.6999 16.5004 17.9249 16.0504C18.0749 15.6754 18.1499 15.2254 18.2249 14.5504C18.2249 13.8754 18.2249 13.6504 18.2249 12.0004C18.2249 10.3504 18.2249 10.1254 18.2249 9.45039C18.2249 8.77539 18.0749 8.32539 17.9249 7.95039C17.7749 7.57539 17.5499 7.20039 17.1749 6.82539C16.7999 6.45039 16.4999 6.30039 16.0499 6.07539C15.6749 5.92539 15.2249 5.85039 14.5499 5.77539C13.8749 5.77539 13.7249 5.77539 11.9999 5.77539Z" fill="white"/>
<path d="M11.9999 8.77539C10.1999 8.77539 8.7749 10.2004 8.7749 12.0004C8.7749 13.8004 10.1999 15.2254 11.9999 15.2254C13.7999 15.2254 15.2249 13.8004 15.2249 12.0004C15.2249 10.2004 13.7999 8.77539 11.9999 8.77539ZM11.9999 14.1004C10.8749 14.1004 9.8999 13.2004 9.8999 12.0004C9.8999 10.8754 10.7999 9.90039 11.9999 9.90039C13.1249 9.90039 14.0999 10.8004 14.0999 12.0004C14.0999 13.1254 13.1249 14.1004 11.9999 14.1004Z" fill="white"/>
<path d="M15.2999 9.45039C15.7141 9.45039 16.0499 9.1146 16.0499 8.70039C16.0499 8.28618 15.7141 7.95039 15.2999 7.95039C14.8857 7.95039 14.5499 8.28618 14.5499 8.70039C14.5499 9.1146 14.8857 9.45039 15.2999 9.45039Z" fill="white"/>
</svg>
