<svg width="25" height="24" viewBox="0 0 25 24" fill="none" xmlns="http://www.w3.org/2000/svg">
<path d="M19.25 6V15.75C19.25 15.9489 19.171 16.1397 19.0303 16.2803C18.8897 16.421 18.6989 16.5 18.5 16.5C18.3011 16.5 18.1103 16.421 17.9697 16.2803C17.829 16.1397 17.75 15.9489 17.75 15.75V7.81031L7.03062 18.5306C6.88988 18.6714 6.69901 18.7504 6.49999 18.7504C6.30097 18.7504 6.1101 18.6714 5.96936 18.5306C5.82863 18.3899 5.74957 18.199 5.74957 18C5.74957 17.801 5.82863 17.6101 5.96936 17.4694L16.6897 6.75H8.74999C8.55108 6.75 8.36031 6.67098 8.21966 6.53033C8.07901 6.38968 7.99999 6.19891 7.99999 6C7.99999 5.80109 8.07901 5.61032 8.21966 5.46967C8.36031 5.32902 8.55108 5.25 8.74999 5.25H18.5C18.6989 5.25 18.8897 5.32902 19.0303 5.46967C19.171 5.61032 19.25 5.80109 19.25 6Z" fill="white"/>
</svg>
