<svg width="21" height="14" viewBox="0 0 21 14" fill="none" xmlns="http://www.w3.org/2000/svg">
<path d="M21.0001 1.25V7.25C21.0001 7.44891 20.921 7.63968 20.7804 7.78033C20.6397 7.92098 20.449 8 20.2501 8C20.0511 8 19.8604 7.92098 19.7197 7.78033C19.5791 7.63968 19.5001 7.44891 19.5001 7.25V3.06031L11.7807 10.7806C11.711 10.8504 11.6283 10.9057 11.5373 10.9434C11.4462 10.9812 11.3486 11.0006 11.2501 11.0006C11.1515 11.0006 11.0539 10.9812 10.9628 10.9434C10.8718 10.9057 10.7891 10.8504 10.7194 10.7806L7.50005 7.56031L1.28068 13.7806C1.13995 13.9214 0.949074 14.0004 0.750051 14.0004C0.551028 14.0004 0.360156 13.9214 0.219426 13.7806C0.0786954 13.6399 -0.000366211 13.449 -0.000366211 13.25C-0.000366211 13.051 0.0786954 12.8601 0.219426 12.7194L6.96943 5.96937C7.03908 5.89964 7.1218 5.84432 7.21285 5.80658C7.30389 5.76884 7.40149 5.74941 7.50005 5.74941C7.59861 5.74941 7.69621 5.76884 7.78726 5.80658C7.8783 5.84432 7.96102 5.89964 8.03068 5.96937L11.2501 9.18969L18.4397 2H14.2501C14.0511 2 13.8604 1.92098 13.7197 1.78033C13.5791 1.63968 13.5001 1.44891 13.5001 1.25C13.5001 1.05109 13.5791 0.860322 13.7197 0.71967C13.8604 0.579018 14.0511 0.5 14.2501 0.5H20.2501C20.449 0.5 20.6397 0.579018 20.7804 0.71967C20.921 0.860322 21.0001 1.05109 21.0001 1.25Z" fill="white"/>
</svg>
