<svg width="48" height="48" viewBox="0 0 48 48" fill="none" xmlns="http://www.w3.org/2000/svg">
<path d="M47.6813 20.2332L42.8963 10.6594C42.72 10.307 42.4761 9.99283 42.1783 9.73475C41.8806 9.47667 41.535 9.27976 41.1612 9.15527C40.7873 9.03077 40.3927 8.98114 39.9997 9.0092C39.6066 9.03725 39.223 9.14245 38.8707 9.31878L34.2075 11.6494L24.3844 9.05066C24.1324 8.98507 23.8677 8.98507 23.6157 9.05066L13.7925 11.6494L9.12942 9.31878C8.77707 9.14245 8.39344 9.03725 8.00043 9.0092C7.60742 8.98114 7.21274 9.03077 6.83892 9.15527C6.4651 9.27976 6.11946 9.47667 5.82174 9.73475C5.52403 9.99283 5.28007 10.307 5.10379 10.6594L0.31879 20.2313C0.142458 20.5836 0.0372593 20.9673 0.00920273 21.3603C-0.0188539 21.7533 0.0307808 22.148 0.155272 22.5218C0.279764 22.8956 0.476673 23.2412 0.734756 23.539C0.992839 23.8367 1.30704 24.0806 1.65942 24.2569L6.72192 26.79L17.1263 34.2207C17.2796 34.3297 17.4519 34.4092 17.6344 34.455L29.6344 37.455C29.8857 37.5181 30.1491 37.5149 30.3988 37.4459C30.6485 37.3769 30.8761 37.2444 31.0594 37.0613L41.385 26.7338L46.3388 24.2569C47.05 23.9009 47.5907 23.2771 47.8421 22.5226C48.0934 21.768 48.0349 20.9446 47.6794 20.2332H47.6813ZM37.3894 26.49L30.9375 21.3225C30.6485 21.0911 30.2841 20.9747 29.9144 20.9958C29.5447 21.0169 29.1958 21.174 28.935 21.4369C25.5957 24.8007 21.8738 24.375 19.5 22.875L27.6075 15H33.5719L38.6738 25.2019L37.3894 26.49ZM7.78692 12L11.625 13.9163L6.83067 23.4882L3.00004 21.5738L7.78692 12ZM29.5369 34.3369L18.6413 31.6144L9.41629 25.0257L14.6663 14.5257L24 12.0525L25.8375 12.5382L17.4 20.7282L17.385 20.745C17.0674 21.0626 16.8252 21.4475 16.6762 21.8713C16.5272 22.295 16.4753 22.7468 16.5242 23.1933C16.5732 23.6398 16.7218 24.0696 16.959 24.451C17.1963 24.8324 17.5162 25.1557 17.895 25.3969C21.75 27.8588 26.4019 27.4594 30.0657 24.4594L35.25 28.6238L29.5369 34.3369ZM41.1619 23.4863L36.3769 13.9238L40.2132 12L45 21.5738L41.1619 23.4863ZM24.7088 40.8619C24.6278 41.1861 24.4408 41.474 24.1775 41.6798C23.9143 41.8856 23.5898 41.9977 23.2557 41.9982C23.1324 41.998 23.0097 41.9829 22.89 41.9532L15.0769 39.9994C14.8942 39.9543 14.7217 39.8748 14.5688 39.765L9.62817 36.2363C9.32438 35.9978 9.12431 35.6513 9.06961 35.2689C9.01491 34.8866 9.1098 34.4979 9.33453 34.1837C9.55925 33.8696 9.89648 33.6543 10.276 33.5826C10.6555 33.5109 11.0481 33.5883 11.3719 33.7988L16.08 37.1625L23.625 39.045C24.0109 39.1416 24.3426 39.3874 24.5473 39.7285C24.7519 40.0695 24.8127 40.4779 24.7163 40.8638L24.7088 40.8619Z" fill="black"/>
</svg>
